# xmcd
#
# Track frame offsets:
#	150
#	12417
#	36036
#	44008
#	51580
#	61071
#	73004
#	88190
#	106859
#	123239
#	139797
#	151998
#	166226
#	180451
#	194644
#	207347
#	224640
#	240332
#
# Disc length: 3417 seconds
#
# Revision: 0
# Processed by: cddbd v1.5.2PL0 Copyright (c) Steve Scherf et al.
# Submitted via: EZCDAudioConverter 5.1.0.1
#
DISCID=070d5712
DTITLE=Roberto Murolo - Vecchia Napoli 3
DYEAR=1900
DGENRE=
TTITLE0=Lo ciuccio de Cola
TTITLE1=Lo guarracino
TTITLE2=Lo rialo
TTITLE3=Lo tiramole
TTITLE4=Lo zoccolaro
TTITLE5=Lu cardillo
TTITLE6=Lu primmo ammore
TTITLE7=Luna caprese
TTITLE8=Luna rossa
TTITLE9=Malafemmena
TTITLE10=Marechiaro
TTITLE11=Maria, Mari'
TTITLE12=Marianni'
TTITLE13=Me so' mbriacato 'e sole
TTITLE14=Michelemma'
TTITLE15=N'accordo in fa
TTITLE16='Na sera 'e maggio
TTITLE17='Na mmasciata
EXTD=
EXTT0=
EXTT1=
EXTT2=
EXTT3=
EXTT4=
EXTT5=
EXTT6=
EXTT7=
EXTT8=
EXTT9=
EXTT10=
EXTT11=
EXTT12=
EXTT13=
EXTT14=
EXTT15=
EXTT16=
EXTT17=
PLAYORDER=
